<svg viewBox="0 0 200 200" xmlns="http://www.w3.org/2000/svg">
  <path fill="#FFFFFF" d="M27.8,-44.2C38.2,-42.2,50.1,-39,50.6,-31.5C51.1,-23.9,40.1,-12,40.4,0.2C40.7,12.3,52.4,24.7,54,35.9C55.7,47.1,47.3,57.3,36.6,63.7C25.9,70.2,13,72.9,0.5,72.1C-12,71.2,-23.9,66.7,-35.5,60.7C-47.1,54.8,-58.4,47.5,-64.7,37.2C-70.9,26.8,-72.2,13.4,-70.1,1.2C-68,-11,-62.5,-21.9,-57.9,-35.2C-53.3,-48.4,-49.6,-63.9,-40.1,-66.4C-30.6,-68.9,-15.3,-58.5,-3.3,-52.8C8.7,-47.1,17.5,-46.3,27.8,-44.2Z" transform="translate(100 100)" />
</svg>